<svg xmlns="http://www.w3.org/2000/svg" viewBox="0 0 306.22 92.68">
  <g id="Layer_2" data-name="Layer 2">
    <g id="Layer_1-2" data-name="Layer 1">
      <g>
        <path d="M73.68,45.16,62,38.46l-9.6,9.23,8.77,8.43L73.68,49a2.18,2.18,0,0,0,1.1-1.9A2.15,2.15,0,0,0,73.68,45.16Z" style="fill: #ffd10f"/>
        <polygon points="60.04 37.32 47.2 29.94 19.06 15.59 50.84 46.17 60.04 37.32" style="fill: #66be6c"/>
        <polygon points="19.53 79.33 47.25 64.14 59.21 57.26 50.84 49.21 19.53 79.33" style="fill: #ef3c49"/>
        <polygon points="17.18 16.83 17.15 78.58 49.26 47.69 17.18 16.83" style="fill: #48c7ed"/>
        <path d="M294.39,2a9.79,9.79,0,0,1,9.8,9.76V80.9a9.79,9.79,0,0,1-9.8,9.76H11.84A9.8,9.8,0,0,1,2,80.9V11.78A9.8,9.8,0,0,1,11.84,2Zm0-2H11.84A11.81,11.81,0,0,0,0,11.78V80.9A11.81,11.81,0,0,0,11.84,92.68H294.39A11.8,11.8,0,0,0,306.22,80.9V11.78A11.8,11.8,0,0,0,294.39,0Z" style="fill: #231f20"/>
        <g>
          <path d="M100.36,56h4.27v9.65a13.61,13.61,0,0,1-4.38,2.28,16.82,16.82,0,0,1-5.14.79,13.94,13.94,0,0,1-6.7-1.61,11.91,11.91,0,0,1-4.68-4.44,12.79,12.79,0,0,1,0-12.78,11.9,11.9,0,0,1,4.7-4.44,14.08,14.08,0,0,1,6.75-1.61,15,15,0,0,1,5.56,1,10.87,10.87,0,0,1,4.2,2.94l-2.85,2.76a9.15,9.15,0,0,0-6.7-2.76,9.53,9.53,0,0,0-4.56,1.07,7.82,7.82,0,0,0-3.13,3,8.63,8.63,0,0,0-1.13,4.42,8.5,8.5,0,0,0,1.13,4.35,8,8,0,0,0,3.13,3,9.26,9.26,0,0,0,4.53,1.1,9.84,9.84,0,0,0,5-1.24Z" style="fill: #231f20"/>
          <path d="M113.41,67.39A8.85,8.85,0,0,1,109.89,64a9.43,9.43,0,0,1-1.27-4.89,9.34,9.34,0,0,1,1.27-4.87,8.9,8.9,0,0,1,3.52-3.36,11.37,11.37,0,0,1,10.17,0,8.93,8.93,0,0,1,3.53,3.36,9.43,9.43,0,0,1,1.27,4.87A9.53,9.53,0,0,1,127.11,64a8.88,8.88,0,0,1-3.53,3.37,11.29,11.29,0,0,1-10.17,0Zm9-4.08a6.38,6.38,0,0,0,0-8.36,5.31,5.31,0,0,0-4-1.59A5.25,5.25,0,0,0,114.54,55a6.41,6.41,0,0,0,0,8.36,5.25,5.25,0,0,0,3.94,1.59A5.31,5.31,0,0,0,122.44,63.31Z" style="fill: #231f20"/>
          <path d="M135.81,67.39A8.88,8.88,0,0,1,132.28,64,9.53,9.53,0,0,1,131,59.13a9.43,9.43,0,0,1,1.27-4.87,8.93,8.93,0,0,1,3.53-3.36,10.6,10.6,0,0,1,5.07-1.2,10.72,10.72,0,0,1,5.1,1.2,8.9,8.9,0,0,1,3.52,3.36,9.34,9.34,0,0,1,1.27,4.87A9.43,9.43,0,0,1,149.5,64,8.85,8.85,0,0,1,146,67.39a10.73,10.73,0,0,1-5.1,1.21A10.61,10.61,0,0,1,135.81,67.39Zm9-4.08a6.35,6.35,0,0,0,0-8.36,5.7,5.7,0,0,0-7.9,0,6.44,6.44,0,0,0,0,8.36,5.7,5.7,0,0,0,7.9,0Z" style="fill: #231f20"/>
          <path d="M173.34,49.9V65.56q0,9.73-10,9.74a18.64,18.64,0,0,1-5.07-.67,10.65,10.65,0,0,1-4-2l1.95-3.24a9.36,9.36,0,0,0,3.07,1.6,11.9,11.9,0,0,0,3.77.61,6.22,6.22,0,0,0,4.47-1.38A5.65,5.65,0,0,0,169,66v-1a7.08,7.08,0,0,1-2.71,1.83,9.45,9.45,0,0,1-3.51.63A10.06,10.06,0,0,1,158,66.4a8.48,8.48,0,0,1-3.37-3.16,9.42,9.42,0,0,1,0-9.31A8.4,8.4,0,0,1,158,50.8a10.16,10.16,0,0,1,4.77-1.1,9.79,9.79,0,0,1,3.67.65,6.77,6.77,0,0,1,2.76,2V49.9Zm-5.85,12.49a5,5,0,0,0,1.58-3.81,4.89,4.89,0,0,0-1.58-3.77,5.75,5.75,0,0,0-4.05-1.45,5.81,5.81,0,0,0-4.08,1.45,4.89,4.89,0,0,0-1.58,3.77,5,5,0,0,0,1.58,3.81,5.77,5.77,0,0,0,4.08,1.47A5.72,5.72,0,0,0,167.49,62.39Z" style="fill: #231f20"/>
          <path d="M179,42.72h4.34V68.35H179Z" style="fill: #231f20"/>
          <path d="M206.43,60.51H191.88a5,5,0,0,0,2,3.23,6.55,6.55,0,0,0,4,1.19,6.77,6.77,0,0,0,5-2l2.33,2.66a8,8,0,0,1-3.16,2.25,11.74,11.74,0,0,1-4.31.76,11.56,11.56,0,0,1-5.38-1.21A8.73,8.73,0,0,1,188.81,64a9.43,9.43,0,0,1-1.27-4.89,9.65,9.65,0,0,1,1.23-4.86,8.73,8.73,0,0,1,3.42-3.37,10.08,10.08,0,0,1,4.93-1.2A9.67,9.67,0,0,1,202,50.89a8.41,8.41,0,0,1,3.34,3.35,10.1,10.1,0,0,1,1.2,5C206.5,59.53,206.47,60,206.43,60.51ZM193.6,54.38a5.16,5.16,0,0,0-1.76,3.26h10.52a5.08,5.08,0,0,0-1.7-3.25,5.66,5.66,0,0,0-7.06,0Z" style="fill: #231f20"/>
          <path d="M236.16,45.2a8,8,0,0,1,3.6,3,9,9,0,0,1,0,9.17,8,8,0,0,1-3.6,3,13.5,13.5,0,0,1-5.5,1h-5.49v7h-4.51V44.17h10A13.5,13.5,0,0,1,236.16,45.2Zm-1.23,11.13a4.91,4.91,0,0,0,0-7.12A7,7,0,0,0,230.45,48h-5.28v9.6h5.28A7,7,0,0,0,234.93,56.33Z" style="fill: #231f20"/>
          <path d="M245.45,42.72h4.34V68.35h-4.34Z" style="fill: #231f20"/>
          <path d="M268.83,51.65q2.18,2,2.17,5.89V68.35h-4.09V66.11A5.07,5.07,0,0,1,264.63,68a9,9,0,0,1-3.56.64,8.79,8.79,0,0,1-3.64-.71,5.58,5.58,0,0,1-2.41-2,5,5,0,0,1-.85-2.85,4.86,4.86,0,0,1,1.85-4q1.86-1.52,5.85-1.51h4.79V57.3a3.75,3.75,0,0,0-1.16-3,5,5,0,0,0-3.45-1,10.16,10.16,0,0,0-3.08.48,7.93,7.93,0,0,0-2.55,1.35L254.72,52a10.44,10.44,0,0,1,3.51-1.7,15.69,15.69,0,0,1,4.34-.58Q266.67,49.7,268.83,51.65Zm-3.95,13.06a4,4,0,0,0,1.78-2.13V60.44h-4.47q-3.75,0-3.75,2.46a2.2,2.2,0,0,0,.93,1.86,4.35,4.35,0,0,0,2.61.69A5.59,5.59,0,0,0,264.88,64.71Z" style="fill: #231f20"/>
          <path d="M293.57,49.9l-8.68,19.94a9.23,9.23,0,0,1-2.95,4.23,7.09,7.09,0,0,1-4.2,1.23,8.6,8.6,0,0,1-2.74-.45,5.93,5.93,0,0,1-2.22-1.24l1.73-3.18a4.77,4.77,0,0,0,1.48.93,4.52,4.52,0,0,0,1.72.35,3,3,0,0,0,1.89-.59,5.21,5.21,0,0,0,1.37-2l.31-.73L273.19,49.9h4.52l5.83,13.65,5.87-13.65Z" style="fill: #231f20"/>
        </g>
        <path d="M89.79,30.74a6,6,0,0,1-2.74-.64,7.07,7.07,0,0,1-2.21-1.71A8.14,8.14,0,0,1,83.37,26a7.64,7.64,0,0,1-.53-2.79,7.92,7.92,0,0,1,2-5.24A6.89,6.89,0,0,1,87,16.28a7.17,7.17,0,0,1,6.33.31,5.74,5.74,0,0,1,2.12,2.34l-1.45,1A4.32,4.32,0,0,0,92.25,18a5.07,5.07,0,0,0-2.5-.63,4.4,4.4,0,0,0-2.06.48,5,5,0,0,0-1.58,1.31,5.93,5.93,0,0,0-1,1.87,6.9,6.9,0,0,0-.35,2.17,6.41,6.41,0,0,0,.39,2.25,6,6,0,0,0,1.1,1.86,5.37,5.37,0,0,0,1.66,1.27,4.69,4.69,0,0,0,2,.46,5,5,0,0,0,2.44-.65,7.42,7.42,0,0,0,2.18-2v1.95A6.09,6.09,0,0,1,89.79,30.74Zm4.54-6.08H91.12V23.23h4.81v7.4h-1.6Z" style="fill: #231f20"/>
        <path d="M108.93,29v1.67H98.8V15.79h9.94v1.68h-8v4.8h7v1.57h-7V29Z" style="fill: #231f20"/>
        <path d="M122.26,17.47h-5.14V30.63h-1.89V17.47h-5.15V15.79h12.18Z" style="fill: #231f20"/>
        <path d="M129.09,30.63V15.79H131V30.63Z" style="fill: #231f20"/>
        <path d="M136.44,19.26V30.63h-1.89V15.79h1.6l9.11,11.6V15.81h1.89V30.63h-1.72Z" style="fill: #231f20"/>
        <path d="M162.08,30.74a6.35,6.35,0,0,1-2.85-.63,6.86,6.86,0,0,1-2.22-1.7,8,8,0,0,1-1.94-5.2,7.73,7.73,0,0,1,.53-2.83,7.84,7.84,0,0,1,1.5-2.4,7,7,0,0,1,2.23-1.67,6.28,6.28,0,0,1,2.8-.62,6.1,6.1,0,0,1,2.85.65,7,7,0,0,1,2.21,1.73,8.37,8.37,0,0,1,1.43,2.43,7.79,7.79,0,0,1,0,5.57,7.6,7.6,0,0,1-1.48,2.4,7,7,0,0,1-2.23,1.66A6.41,6.41,0,0,1,162.08,30.74ZM157,23.21a6.5,6.5,0,0,0,.37,2.19,5.89,5.89,0,0,0,1,1.87A4.94,4.94,0,0,0,160,28.56a4.77,4.77,0,0,0,4.25,0,5,5,0,0,0,1.6-1.33,6.14,6.14,0,0,0,1-1.89,6.67,6.67,0,0,0,.35-2.11,6.39,6.39,0,0,0-.37-2.17,5.83,5.83,0,0,0-1.05-1.87,5,5,0,0,0-1.62-1.3,4.57,4.57,0,0,0-2.07-.47,4.68,4.68,0,0,0-2.14.49,4.89,4.89,0,0,0-1.6,1.33,6,6,0,0,0-1,1.87A6.42,6.42,0,0,0,157,23.21Z" style="fill: #231f20"/>
        <path d="M173.63,19.26V30.63h-1.89V15.79h1.6l9.12,11.6V15.81h1.89V30.63h-1.73Z" style="fill: #231f20"/>
      </g>
    </g>
  </g>
</svg>
