<svg xmlns="http://www.w3.org/2000/svg" viewBox="0 0 177.9 53.84">
  <g id="Layer_2" data-name="Layer 2">
    <g id="Layer_1-2" data-name="Layer 1">
      <g>
        <path d="M171,1.18a5.68,5.68,0,0,1,5.69,5.66V47A5.69,5.69,0,0,1,171,52.67H6.88A5.7,5.7,0,0,1,1.18,47V6.84a5.69,5.69,0,0,1,5.7-5.66ZM171,0H6.88A6.86,6.86,0,0,0,0,6.84V47a6.86,6.86,0,0,0,6.88,6.84H171A6.86,6.86,0,0,0,177.9,47V6.84A6.86,6.86,0,0,0,171,0Z" style="fill: #231f20"/>
        <g>
          <path d="M18.73,22c-2.88,5-1.05,12.55,2.14,17.13,1.59,2.3,3.21,4.35,5.42,4.35h.12a6.58,6.58,0,0,0,2.51-.67,7,7,0,0,1,3-.7,6.5,6.5,0,0,1,2.83.68,6.09,6.09,0,0,0,2.72.65c2.49,0,4-2.27,5.36-4.23a18.2,18.2,0,0,0,2.35-4.79v0a.27.27,0,0,0-.15-.34h0a7.11,7.11,0,0,1-4.32-6.5,7.29,7.29,0,0,1,3.47-6.11h0a.28.28,0,0,0,.12-.18.25.25,0,0,0,0-.21,8.12,8.12,0,0,0-6.35-3.44l-.56,0a11.09,11.09,0,0,0-4,1,6.57,6.57,0,0,1-1.91.56,6.21,6.21,0,0,1-2-.57A9.59,9.59,0,0,0,26,17.67h-.09A8.53,8.53,0,0,0,18.73,22Z" style="fill: #231f20"/>
          <path d="M37.91,9.51a7.81,7.81,0,0,0-5.15,2.63,7.24,7.24,0,0,0-1.84,5.39.27.27,0,0,0,.25.24h.36a6.6,6.6,0,0,0,4.86-2.48A7.63,7.63,0,0,0,38.2,9.76.29.29,0,0,0,37.91,9.51Z" style="fill: #231f20"/>
        </g>
        <g>
          <g>
            <path d="M58.21,10.58h3.34a4.93,4.93,0,0,1,2.34.54,4,4,0,0,1,1.59,1.5,4.42,4.42,0,0,1,0,4.34,4,4,0,0,1-1.59,1.5,4.93,4.93,0,0,1-2.34.54H58.21Zm3.3,7.86A4.4,4.4,0,0,0,63.57,18,3.31,3.31,0,0,0,65,16.69a4,4,0,0,0,0-3.8,3.31,3.31,0,0,0-1.38-1.29,4.4,4.4,0,0,0-2.06-.46H58.82v7.3Z" style="fill: #231f20"/>
            <path d="M68.84,18.64a3.09,3.09,0,0,1-1.13-1.14,3.48,3.48,0,0,1,0-3.28,3,3,0,0,1,1.13-1.14,3.39,3.39,0,0,1,3.23,0,3,3,0,0,1,1.13,1.14,3.49,3.49,0,0,1,0,3.28,3.09,3.09,0,0,1-1.13,1.14,3.46,3.46,0,0,1-3.23,0Zm2.91-.47a2.42,2.42,0,0,0,.91-.94,3,3,0,0,0,0-2.74,2.42,2.42,0,0,0-.91-.94,2.64,2.64,0,0,0-2.59,0,2.42,2.42,0,0,0-.91.94,3,3,0,0,0,0,2.74,2.42,2.42,0,0,0,.91.94,2.71,2.71,0,0,0,2.59,0Z" style="fill: #231f20"/>
            <path d="M84.31,12.72,81.92,19h-.57l-2.13-5.45L77.09,19h-.56l-2.39-6.28h.58l2.1,5.6L79,12.72h.52l2.14,5.59,2.12-5.59Z" style="fill: #231f20"/>
            <path d="M90.66,13.36a2.66,2.66,0,0,1,.69,2V19h-.61V15.38a2.2,2.2,0,0,0-.53-1.61,2,2,0,0,0-1.51-.56,2.34,2.34,0,0,0-1.75.67,2.46,2.46,0,0,0-.64,1.77V19h-.6V12.72h.58v1.36a2.41,2.41,0,0,1,1-1,3,3,0,0,1,1.53-.38A2.52,2.52,0,0,1,90.66,13.36Z" style="fill: #231f20"/>
            <path d="M93.84,10.08h.6V19h-.6Z" style="fill: #231f20"/>
            <path d="M97.84,18.64a3,3,0,0,1-1.13-1.14,3.48,3.48,0,0,1,0-3.28,3,3,0,0,1,1.13-1.14,3.24,3.24,0,0,1,1.61-.41,3.19,3.19,0,0,1,1.61.41,3,3,0,0,1,1.13,1.14,3.49,3.49,0,0,1,0,3.28,3,3,0,0,1-1.13,1.14,3.18,3.18,0,0,1-1.61.4A3.23,3.23,0,0,1,97.84,18.64Zm2.91-.47a2.57,2.57,0,0,0,.91-.94,3,3,0,0,0,0-2.74,2.46,2.46,0,0,0-2.21-1.28,2.6,2.6,0,0,0-1.3.34,2.47,2.47,0,0,0-.9.94,3,3,0,0,0,0,2.74,2.47,2.47,0,0,0,.9.94,2.59,2.59,0,0,0,1.3.33A2.54,2.54,0,0,0,100.75,18.17Z" style="fill: #231f20"/>
            <path d="M108.38,13.27A2.3,2.3,0,0,1,109,15v4h-.58V17.88a2.17,2.17,0,0,1-.89.86,3,3,0,0,1-1.38.3,2.58,2.58,0,0,1-1.67-.49,1.61,1.61,0,0,1-.61-1.3,1.57,1.57,0,0,1,.57-1.26,2.66,2.66,0,0,1,1.79-.49h2.16V15a1.75,1.75,0,0,0-.48-1.33,1.94,1.94,0,0,0-1.39-.46,3.45,3.45,0,0,0-1.2.22,2.91,2.91,0,0,0-1,.58l-.31-.44a3.36,3.36,0,0,1,1.14-.65,4,4,0,0,1,1.39-.24A2.51,2.51,0,0,1,108.38,13.27Zm-.81,4.92a2.16,2.16,0,0,0,.83-1V16h-2.15a2.14,2.14,0,0,0-1.34.33,1.14,1.14,0,0,0-.42.93,1.15,1.15,0,0,0,.46,1,2.09,2.09,0,0,0,1.29.35A2.36,2.36,0,0,0,107.57,18.19Z" style="fill: #231f20"/>
            <path d="M117.11,10.08V19h-.59V17.52a2.73,2.73,0,0,1-1,1.13,3,3,0,0,1-1.54.39,3.16,3.16,0,0,1-1.59-.4,3,3,0,0,1-1.12-1.13,3.6,3.6,0,0,1,0-3.3,2.83,2.83,0,0,1,1.12-1.13,3.16,3.16,0,0,1,1.59-.41,3,3,0,0,1,1.52.4,2.83,2.83,0,0,1,1.06,1.11v-4.1Zm-1.84,8.09a2.47,2.47,0,0,0,.9-.94,2.93,2.93,0,0,0,0-2.74,2.47,2.47,0,0,0-.9-.94,2.6,2.6,0,0,0-1.3-.34,2.57,2.57,0,0,0-1.3.34,2.47,2.47,0,0,0-.9.94,2.93,2.93,0,0,0,0,2.74,2.47,2.47,0,0,0,.9.94,2.56,2.56,0,0,0,1.3.33A2.59,2.59,0,0,0,115.27,18.17Z" style="fill: #231f20"/>
            <path d="M123.61,18.64a3.09,3.09,0,0,1-1.13-1.14,3.48,3.48,0,0,1,0-3.28,3,3,0,0,1,1.13-1.14,3.39,3.39,0,0,1,3.23,0A3,3,0,0,1,128,14.22a3.49,3.49,0,0,1,0,3.28,3.09,3.09,0,0,1-1.13,1.14,3.46,3.46,0,0,1-3.23,0Zm2.91-.47a2.42,2.42,0,0,0,.91-.94,3,3,0,0,0,0-2.74,2.42,2.42,0,0,0-.91-.94,2.64,2.64,0,0,0-2.59,0,2.42,2.42,0,0,0-.91.94,3,3,0,0,0,0,2.74,2.42,2.42,0,0,0,.91.94,2.71,2.71,0,0,0,2.59,0Z" style="fill: #231f20"/>
            <path d="M135.2,13.36a2.66,2.66,0,0,1,.69,2V19h-.6V15.38a2.21,2.21,0,0,0-.54-1.61,2,2,0,0,0-1.51-.56,2.34,2.34,0,0,0-1.75.67,2.46,2.46,0,0,0-.64,1.77V19h-.6V12.72h.58v1.36a2.41,2.41,0,0,1,1-1,3,3,0,0,1,1.53-.38A2.52,2.52,0,0,1,135.2,13.36Z" style="fill: #231f20"/>
            <path d="M144.61,18.6a1.68,1.68,0,0,1-.57.33,2.17,2.17,0,0,1-.72.11,1.71,1.71,0,0,1-1.27-.45,1.69,1.69,0,0,1-.45-1.25v-4.1h-1.16v-.52h1.16V11.35h.61v1.37h2v.52h-2v4a1.3,1.3,0,0,0,.29.93,1.16,1.16,0,0,0,.88.32,1.43,1.43,0,0,0,1-.35Z" style="fill: #231f20"/>
            <path d="M151.24,13.36a2.66,2.66,0,0,1,.69,2V19h-.61V15.38a2.25,2.25,0,0,0-.53-1.61,2,2,0,0,0-1.51-.56,2.34,2.34,0,0,0-1.75.67,2.42,2.42,0,0,0-.64,1.77V19h-.6V10.08h.6V14a2.34,2.34,0,0,1,1-1,3,3,0,0,1,1.51-.36A2.52,2.52,0,0,1,151.24,13.36Z" style="fill: #231f20"/>
            <path d="M159.75,16h-5.42a2.61,2.61,0,0,0,.38,1.31,2.35,2.35,0,0,0,.94.88,3.08,3.08,0,0,0,2.49.09,2.38,2.38,0,0,0,.88-.65l.35.39a2.75,2.75,0,0,1-1,.76A3.3,3.3,0,0,1,157,19a3.42,3.42,0,0,1-1.68-.4,3,3,0,0,1-1.15-1.13,3.21,3.21,0,0,1-.42-1.65,3.4,3.4,0,0,1,.39-1.64,2.89,2.89,0,0,1,1.08-1.14,3,3,0,0,1,1.55-.41,3,3,0,0,1,1.54.41,2.88,2.88,0,0,1,1.07,1.12,3.4,3.4,0,0,1,.4,1.64Zm-4.19-2.5a2.18,2.18,0,0,0-.85.83,2.82,2.82,0,0,0-.37,1.2h4.83a2.48,2.48,0,0,0-.36-1.2,2.35,2.35,0,0,0-2.05-1.13A2.43,2.43,0,0,0,155.56,13.5Z" style="fill: #231f20"/>
          </g>
          <g>
            <path d="M67.15,37.6H59.93L58.5,40.92H55.74l6.5-14.37h2.64L71.4,40.92H68.59Zm-.89-2.1-2.72-6.28L60.83,35.5Z" style="fill: #231f20"/>
            <path d="M82,30.53a5,5,0,0,1,2,2,5.88,5.88,0,0,1,.72,2.94,5.94,5.94,0,0,1-.72,3,5.05,5.05,0,0,1-2,2,5.85,5.85,0,0,1-2.88.7,4.45,4.45,0,0,1-3.53-1.48v5.32H73V30h2.46v1.43A3.92,3.92,0,0,1,77,30.22a5.3,5.3,0,0,1,2.07-.39A6,6,0,0,1,82,30.53Zm-.83,7.4a3.83,3.83,0,0,0,0-5A3.11,3.11,0,0,0,78.81,32a3.31,3.31,0,0,0-1.67.42A3,3,0,0,0,76,33.63a4,4,0,0,0,0,3.62,3,3,0,0,0,1.18,1.2,3.31,3.31,0,0,0,1.67.42A3.11,3.11,0,0,0,81.15,37.93Z" style="fill: #231f20"/>
            <path d="M96.14,30.53a5.09,5.09,0,0,1,2,2,5.88,5.88,0,0,1,.72,2.94,5.94,5.94,0,0,1-.72,3,5.12,5.12,0,0,1-2,2,5.85,5.85,0,0,1-2.88.7,4.45,4.45,0,0,1-3.53-1.48v5.32H87.15V30h2.46v1.43a4,4,0,0,1,1.57-1.17,5.39,5.39,0,0,1,2.08-.39A6,6,0,0,1,96.14,30.53Zm-.83,7.4a3.83,3.83,0,0,0,0-5A3.11,3.11,0,0,0,93,32a3.31,3.31,0,0,0-1.67.42,3,3,0,0,0-1.18,1.2,4,4,0,0,0,0,3.62,3,3,0,0,0,1.18,1.2,3.31,3.31,0,0,0,1.67.42A3.11,3.11,0,0,0,95.31,37.93Z" style="fill: #231f20"/>
            <path d="M108.5,40.66A6.89,6.89,0,0,1,106,39.4l.93-2.07a7.13,7.13,0,0,0,2.18,1.14,8.05,8.05,0,0,0,2.59.44,4.51,4.51,0,0,0,2.4-.51,1.56,1.56,0,0,0,.8-1.36,1.3,1.3,0,0,0-.44-1,3.16,3.16,0,0,0-1.13-.63q-.67-.23-1.86-.51a19.86,19.86,0,0,1-2.67-.79,4.28,4.28,0,0,1-1.75-1.22,3.26,3.26,0,0,1-.74-2.25,3.84,3.84,0,0,1,.65-2.16,4.43,4.43,0,0,1,2-1.55,7.91,7.91,0,0,1,3.21-.58,10.35,10.35,0,0,1,2.6.33,7.19,7.19,0,0,1,2.21.94l-.84,2.08a8.43,8.43,0,0,0-2-.84,7.06,7.06,0,0,0-2-.29,4.25,4.25,0,0,0-2.36.53,1.64,1.64,0,0,0-.77,1.42,1.27,1.27,0,0,0,.44,1,3.16,3.16,0,0,0,1.12.61c.46.15,1.08.32,1.86.52a18.11,18.11,0,0,1,2.64.77,4.44,4.44,0,0,1,1.77,1.22,3.21,3.21,0,0,1,.73,2.22,3.78,3.78,0,0,1-.65,2.15,4.33,4.33,0,0,1-2,1.54,7.92,7.92,0,0,1-3.22.58A11.27,11.27,0,0,1,108.5,40.66Z" style="fill: #231f20"/>
            <path d="M126.61,40.33a2.92,2.92,0,0,1-1.1.55,4.79,4.79,0,0,1-1.38.19,3.89,3.89,0,0,1-2.8-1,3.61,3.61,0,0,1-1-2.75V32.09h-1.82V30h1.82V27.53h2.58V30h3v2.05h-3v5.22a1.74,1.74,0,0,0,.39,1.22,1.47,1.47,0,0,0,1.13.42,2.3,2.3,0,0,0,1.45-.45Z" style="fill: #231f20"/>
            <path d="M130.31,40.35a5.26,5.26,0,0,1-2.1-2,5.68,5.68,0,0,1-.75-2.91,5.62,5.62,0,0,1,.75-2.9,5.23,5.23,0,0,1,2.1-2,6.69,6.69,0,0,1,6,0,5.3,5.3,0,0,1,2.1,2,5.62,5.62,0,0,1,.75,2.9,5.68,5.68,0,0,1-.75,2.91,5.32,5.32,0,0,1-2.1,2,6.69,6.69,0,0,1-6,0Zm5.36-2.42a3.8,3.8,0,0,0,0-5,3.15,3.15,0,0,0-2.35-.94A3.11,3.11,0,0,0,131,33a3.83,3.83,0,0,0,0,5,3.11,3.11,0,0,0,2.34.94A3.15,3.15,0,0,0,135.67,37.93Z" style="fill: #231f20"/>
            <path d="M148.05,29.83v2.45a3.37,3.37,0,0,0-.59-.06,3.15,3.15,0,0,0-2.36.87,3.48,3.48,0,0,0-.84,2.51v5.32h-2.58V30h2.45v1.6A4.32,4.32,0,0,1,148.05,29.83Z" style="fill: #231f20"/>
            <path d="M160.46,36.26h-8.65A3,3,0,0,0,153,38.18a3.91,3.91,0,0,0,2.38.71,4,4,0,0,0,3-1.19l1.39,1.58a4.66,4.66,0,0,1-1.88,1.34,6.91,6.91,0,0,1-2.56.45,6.83,6.83,0,0,1-3.2-.72,5.3,5.3,0,0,1-2.14-2,5.68,5.68,0,0,1-.75-2.91,5.82,5.82,0,0,1,.73-2.89,5.23,5.23,0,0,1,2-2,5.92,5.92,0,0,1,2.93-.72,5.85,5.85,0,0,1,2.88.71,5.12,5.12,0,0,1,2,2,6.1,6.1,0,0,1,.71,3C160.5,35.68,160.49,35.93,160.46,36.26Zm-7.63-3.64a3,3,0,0,0-1,1.94H158a3,3,0,0,0-1-1.93,3,3,0,0,0-2.1-.74A3.11,3.11,0,0,0,152.83,32.62Z" style="fill: #231f20"/>
          </g>
        </g>
      </g>
    </g>
  </g>
</svg>
