<svg xmlns="http://www.w3.org/2000/svg" xmlns:xlink="http://www.w3.org/1999/xlink" viewBox="0 0 350.25 384.69">
  <defs>
    <linearGradient id="New_Gradient_Swatch_1" data-name="New Gradient Swatch 1" x1="16.53" y1="133.98" x2="328.12" y2="133.98" gradientUnits="userSpaceOnUse">
      <stop offset="0.1" stop-color="#f99c1e"/>
      <stop offset="0.38" stop-color="#f26022"/>
      <stop offset="0.64" stop-color="#eb2427"/>
    </linearGradient>
    <linearGradient id="linear-gradient" x1="3.6" y1="213.68" x2="70.91" y2="213.68" gradientUnits="userSpaceOnUse">
      <stop offset="1" stop-color="#f89521"/>
      <stop offset="1" stop-color="#ed3326"/>
    </linearGradient>
    <linearGradient id="linear-gradient-2" x1="34.95" y1="103.22" x2="180.24" y2="103.22" gradientUnits="userSpaceOnUse">
      <stop offset="0.29" stop-color="#f89521"/>
      <stop offset="0.92" stop-color="#f05925"/>
      <stop offset="1" stop-color="#ef5126"/>
    </linearGradient>
  </defs>
  <g id="Layer_2" data-name="Layer 2">
    <g id="Layer_1-2" data-name="Layer 1">
      <g>
        <g>
          <g>
            <path d="M327.72,119.62c-1.42-7.44-4.45-11.1-7-13.06-1.57-1.24-1.14-.81-8.16-4.49-3.05-1.6-5.29-3.18-9-4.9-1.37-.63-2.51-1.12-3.27-1.43-.13-2.24-.27-4.49-.4-6.73-10.63-8.78-15.76-12.23-18.38-13.48a5.92,5.92,0,0,1-2.66-2.25c-1.45-2.46-.31-5.61,0-6.53,2.47-7.34.35-18.76-.41-21.84-1.1-4.55-5.58-9.7-14.49-19.8-4.67-5.3-8.75-9.54-11.63-12.46a69,69,0,0,1,5.3,11.64,67.9,67.9,0,0,1,3.07,12.46c-3.4-2.67-8.24-6.28-14.29-10.22C237.42,20.65,223.9,12,205,6.12A140.13,140.13,0,0,0,170.32,0a197,197,0,0,1,53.9,28.17,177.67,177.67,0,0,0-33.69-13.48,170,170,0,0,0-56.61-6.5C117.57,9.25,103,10.2,87,19.37c-17.25,9.89-26.75,24-31.29,32a87.78,87.78,0,0,1,9.15-6.12,89.43,89.43,0,0,1,81.38-4.66,77.11,77.11,0,0,1,10.91,5.59c11.53,7,28.59,21,34.21,44.42,4.13,17.23,1.1,35.47-7.77,51.24a81.82,81.82,0,0,1-31,31l-136-6c10,1,23.39,2.55,39.18,5.24,9.79,1.66,19.51,3.8,38.57,8,40.18,8.89,103,43.5,106.94,55.54,3.63,11.22-.47,24.1-10.43,32.29a73.31,73.31,0,0,0,29.31-27.81,72.35,72.35,0,0,0,9.22-27.43,37.61,37.61,0,0,0,20,6.95c8.53.31,23.11-2.33,26-11.43a13.51,13.51,0,0,0-.54-8.71,28.77,28.77,0,0,0,12.38-18l-3.2,1.77c.05-2.79.09-5.58.14-8.37a13.44,13.44,0,0,1-5.51,5.44c-6.33,3.27-12.85-.2-13.48-.54a71.72,71.72,0,0,1,1.16-11.64,37.72,37.72,0,0,1,1.56-6.53c2.14-5.86,6.3-9.34,9.94-12.32,7.47-6.1,11.32-5.53,17.21-9.05a4.15,4.15,0,0,1,2.79-.68,3.72,3.72,0,0,1,2.66,2.11c.67,1.54-.07,3.13-.88,4.76a17,17,0,0,1-4.9,5.92,20.48,20.48,0,0,0,4.42.28,22.34,22.34,0,0,0,7.22-1.63,23.69,23.69,0,0,0,4.55-2.46,7.45,7.45,0,0,1-.74,3.81A7.62,7.62,0,0,1,308,155a21.16,21.16,0,0,0,12.92-14.56,15.6,15.6,0,0,0,3.47-3.27,17,17,0,0,0,2.66-5.31A26.92,26.92,0,0,0,327.72,119.62ZM293.18,91.57c-.72,1-3.35.17-4.78-.47a13.39,13.39,0,0,1-5.27-4.91,20.45,20.45,0,0,1-2-3.7,59.16,59.16,0,0,0,7.17,4.66c1.62.88,3.18,1.63,4.67,2.27C293.6,90.79,293.35,91.35,293.18,91.57Z" style="fill: url(#New_Gradient_Swatch_1)"/>
            <path d="M320.71,126.43c-2.7-2-3.9-1.81-5.59-3.2-1.25-1-2.7-2.87-3.4-6.4,1.82.67,3.63,1.32,5.45,2,.77-.3,1.54-.62,2.31-.94l5.31.41L320,109.62l-14.08-8.91-8-5.58-.14-5.51a128.23,128.23,0,0,0-23.48-15.45C264,69,258.37,67.9,254.5,69.27c-.66.23-3.18,1.2-7.22,2.59-2.35.81-4.29,1.42-5.58,1.83l3.34.41L260.42,76l-23.75,9.81A34.48,34.48,0,0,0,263,111.05a59.08,59.08,0,0,0-17.21,27,52.94,52.94,0,0,0-1.7,8.31,46.21,46.21,0,0,1,18.09-16.74,44.45,44.45,0,0,1,11.17-3.88l-9.67,7.82c-5.25,6.87-9.31,12.82-12.18,17.23-4.48,6.87-6.74,10.38-8.1,14.28-2.44,7-1.36,9.93-3.81,16.94a43.46,43.46,0,0,1-6.87,12.52,14.38,14.38,0,0,0,6.13.35,15,15,0,0,0,8.23-4.36,21.89,21.89,0,0,1-1.7,4.15A27.13,27.13,0,0,1,238,203a42,42,0,0,1-5.79,4,31.74,31.74,0,0,0,9.4-.54,44.43,44.43,0,0,0,8.71-3.07c2.63-1.12,4.76-2.19,6.26-3a21.55,21.55,0,0,1-2.8,5.37c-4.57,6.43-11.4,8.52-14.08,9.19,5.08-.28,9.31-.77,12.46-1.22,4.95-.71,7.49-1.33,10.2-2.52,4.36-1.92,5.85-3.84,6.4-4.63s2.26-3.26,1.7-6.05c-.36-1.85-1.54-2.9-2.65-4.09-2.24-2.38-3.47-4.63-5.92-9.12a38.28,38.28,0,0,1-4.43-16.87c-.11-3.6-.26-8.48,2.24-13.68.89-1.82,2.7-4.93,12.46-12.31A163.63,163.63,0,0,1,287.77,134a11.21,11.21,0,0,1-2.85-5.92c-.69-5,2.49-9.56,6.19-11.76,4.95-3,10.25-1.27,11.84-.76a16.92,16.92,0,0,1,6.6,4c.55,1,1.16,2.07,1,2.17s-.94-1.12-2.31-2.17a10.79,10.79,0,0,0-6.33-2,11.65,11.65,0,0,0-4.16.68l2.8.88c2.77.88,3.23,1,3.87,1.43A9.47,9.47,0,0,1,307,123.3a24.58,24.58,0,0,1,2.58,4.29,9.62,9.62,0,0,1-3.12-1.77c-1.35-1.15-1.37-1.83-2.59-2.8a8.53,8.53,0,0,0-4.29-1.62,9.09,9.09,0,0,0-5,.41c-.61.24-3.64,1.47-4.08,3.73-.58,3,3.78,6,5,6.74,3.31,2.21,6.62,2.59,13.14,3.27,7.14.74,9.68,0,11.5-.81,1-.49,4.18-2,4.22-4.09C324.35,129.08,322.64,127.83,320.71,126.43ZM288.28,87.15c1.62.88,3.18,1.63,4.67,2.27.65,1.37.4,1.93.23,2.15-.72,1-3.35.17-4.78-.47a13.39,13.39,0,0,1-5.27-4.91,20.45,20.45,0,0,1-2-3.7A59.16,59.16,0,0,0,288.28,87.15Z" style="fill: #be202e"/>
            <g>
              <path d="M33.8,170.87l37.11,6.4L41.6,256.5l-38-2.31Q18.71,212.53,33.8,170.87Z" style="fill: url(#linear-gradient)"/>
              <path d="M179.31,127.94c.42,3.14.72,5.85.93,8a16.11,16.11,0,0,1-.79,4.31c-.51,1.55-1.26,3-3.86,6.5-1.45,1.94-2.73,3.66-4.87,6.05a78.54,78.54,0,0,1-20.4,16.37q-12.13-39-24.25-78.1c-.09-1-.76-6.41-5.07-9.41-4.71-3.28-11.91-2.31-16.92,2.94L75,166.67,35,165.83c7.12-20.16,12.25-35,12.48-35.69.3-1,.56-1.93.56-1.93h0c.46-1.6.67-2.47,1.62-5.72,2.76-9.4,7.7-25.17,15-43.79,8.26-21,13.13-29.3,22-35,11.64-7.46,24.26-6.59,30.44-6.17a60.28,60.28,0,0,1,33.54,12.93A58,58,0,0,1,162.1,63a201.91,201.91,0,0,1,9.71,27,304.82,304.82,0,0,1,6.55,31.53C178.89,124.77,179.31,127.94,179.31,127.94Z" style="fill: url(#linear-gradient-2)"/>
              <line x1="172.33" y1="105.2" x2="172.33" y2="105.21" style="fill: none"/>
            </g>
            <path d="M294.51,89.05c.15.45.74,2.35-.24,3.71-1.12,1.55-3.51,1.33-5,1.19a13,13,0,0,1-7.54-3.59,45.88,45.88,0,0,0-19.25,2.28c4.52-.61,7.19.46,8.73,1.43a44.41,44.41,0,0,1,4.18,3.71c4.08,3.8,3.82,3.81,4.55,4.19s1.69.78,9,1.07c1.62.07,2.95.1,3.82.12-1.21.48-4.3,1.71-7.41,3.23a5.22,5.22,0,0,0-2.51,2.15,4.29,4.29,0,0,0-.48,1.8,24,24,0,0,1-2,7,22.33,22.33,0,0,1,8.85-8.25,18.57,18.57,0,0,1,8.73-2.27,18.26,18.26,0,0,1,10.52,3.47,23.27,23.27,0,0,0-12.32-10.89,11.06,11.06,0,0,0-1.55-10.4Z" style="fill: #eb2127"/>
          </g>
          <text transform="translate(4.64 350.85)" style="font-size: 90.44795227050781px;fill: #eb2127;font-family: Facon">AWRA</text>
        </g>
        <text transform="translate(178.57 377.96)" style="font-size: 27.1223201751709px;fill: #eb2127;font-family: FrederickatheGreat-Regular, Fredericka the Great">King of roads</text>
      </g>
    </g>
  </g>
</svg>
